<svg width="468" height="96" viewBox="0 0 468 96" fill="none" xmlns="http://www.w3.org/2000/svg">
<path d="M460 38.96L431.24 36.48L420 10L408.76 36.52L380 38.96L401.84 57.88L395.28 86L420 71.08L444.72 86L438.2 57.88L460 38.96ZM420 63.6L404.96 72.68L408.96 55.56L395.68 44.04L413.2 42.52L420 26.4L426.84 42.56L444.36 44.08L431.08 55.6L435.08 72.72L420 63.6Z" fill="#FDBE3D"/>
<path d="M319 71.08L343.72 86L337.16 57.88L359 38.96L330.24 36.52L319 10L307.76 36.52L279 38.96L300.84 57.88L294.28 86L319 71.08Z" fill="#FDBE3D"/>
<path d="M40 71.08L64.72 86L58.16 57.88L80 38.96L51.24 36.52L40 10L28.76 36.52L0 38.96L21.84 57.88L15.28 86L40 71.08Z" fill="#FDBE3D"/>
<path d="M133 71.08L157.72 86L151.16 57.88L173 38.96L144.24 36.52L133 10L121.76 36.52L93 38.96L114.84 57.88L108.28 86L133 71.08Z" fill="#FDBE3D"/>
<path d="M226 71.08L250.72 86L244.16 57.88L266 38.96L237.24 36.52L226 10L214.76 36.52L186 38.96L207.84 57.88L201.28 86L226 71.08Z" fill="#FDBE3D"/>
</svg>
